Coordinates
version=1
nRows=7
nColumns=42
inDegrees=yes

Units are S.I. units (second, meters, Newtons, ...)
If the header above contains a line with 'inDegrees', this indicates whether rotational values are in degrees (yes) or radians (no).

endheader
time	pelvis_tilt	pelvis_list	pelvis_rotation	pelvis_tx	pelvis_ty	pelvis_tz	hip_flexion_r	hip_adduction_r	hip_rotation_r	knee_angle_r	knee_adduction_r	knee_angle_r_beta	ankle_angle_r	subtalar_angle_r	mtp_angle_r	hip_flexion_l	hip_adduction_l	hip_rotation_l	knee_angle_l	knee_adduction_l	knee_angle_l_beta	ankle_angle_l	subtalar_angle_l	mtp_angle_l	lumbar_extension	lumbar_bending	lumbar_rotation	arm_flex_r	arm_add_r	arm_rot_r	elbow_flex_r	pro_sup_r	wrist_flex_r	wrist_dev_r	arm_flex_l	arm_add_l	arm_rot_l	elbow_flex_l	pro_sup_l	wrist_flex_l	wrist_dev_l
      0.90000000	      8.12774665	      3.11383098	      2.76029511	     -1.08083135	      0.88160124	      0.03192109	    -15.17139180	     -7.68267124	    -14.34389617	     43.18932141	      5.89973990	      0.75379586	     11.17181371	     13.38105332	     -7.70433045	     23.91722715	      5.09317451	    -18.50871407	     41.12913378	     -7.53907338	      0.71783880	     12.96399175	     15.94050490	     -7.70433045	    -19.71480207	     -0.50259322	     -3.43481834	      7.62642354	     -9.48291519	     -8.27067013	     41.80027603	     90.00000001	      0.00000000	      0.00000000	     -5.25119799	     -6.56657081	    -26.84310322	     31.05571634	     90.00000001	      0.00000000	      0.00000000
      0.91000000	      8.25880803	      3.25009305	      2.86140759	     -1.07099474	      0.88310543	      0.03095714	    -14.70295258	     -7.82527256	    -13.42560441	     44.81857940	      6.07932899	      0.78223178	      6.64832494	      8.42984666	     -7.69492852	     22.95568362	      5.12181274	    -19.65847184	     40.92323971	     -8.08631176	      0.71424527	     14.03195865	     18.74817356	     -7.69492852	    -19.64647822	     -0.66150629	     -3.43917037	      6.87273644	     -9.23525836	     -9.01156724	     41.78773161	     90.00000001	      0.00000000	      0.00000000	     -5.35168122	     -6.66486321	    -26.96577692	     31.59177902	     90.00000001	      0.00000000	      0.00000000
      0.92000000	      8.28407473	      3.46118484	      2.83756495	     -1.06146462	      0.88436789	      0.02998708	    -13.81594790	     -8.32494393	    -12.85713678	     46.97427183	      6.19445720	      0.81985571	      3.61274724	      5.77325413	     -7.68251574	     22.02634135	      5.17242566	    -20.67750795	     40.57108321	     -8.29458707	      0.70809898	     14.88052073	     20.49149378	     -7.68251574	    -19.49439266	     -0.88587225	     -3.49279763	      6.28328556	     -9.13619904	     -9.54556017	     41.47733628	     90.00000001	      0.00000000	      0.00000000	     -5.45010950	     -6.65804584	    -27.07615317	     31.91865862	     90.00000001	      0.00000000	      0.00000000
      0.93000000	      8.28868286	      3.70389299	      2.75268819	     -1.05216638	      0.88552416	      0.02920908	    -12.71007897	     -8.88672526	    -12.69490141	     49.30295719	      5.87650337	      0.86049893	      1.61726997	      5.32446189	     -7.68076060	     21.09083492	      5.33264790	    -21.08982590	     40.23023172	     -8.17482407	      0.70215000	     15.44108129	     20.87377063	     -7.68076060	    -19.36211551	     -1.18515321	     -3.42551885	      5.69056859	     -9.11074244	     -9.65504122	     41.21792740	     90.00000001	      0.00000000	      0.00000000	     -5.40361411	     -6.70962314	    -27.11394396	     32.15313287	     90.00000001	      0.00000000	      0.00000000
      0.94000000	      8.32259409	      3.76430285	      2.65510417	     -1.04296267	      0.88677453	      0.02864154	    -11.52236180	     -9.11584203	    -11.92053585	     51.51794557	      5.85691159	      0.89915777	     -2.20040666	      1.51726274	     -7.67206403	     20.20886112	      5.23280231	    -22.11113857	     39.91979327	     -8.48707168	      0.69673183	     16.34657744	     23.03851982	     -7.67206403	    -19.28462696	     -1.28734268	     -3.40663610	      5.21136282	     -8.98256304	    -10.20561228	     40.83670240	     90.00000001	      0.00000000	      0.00000000	     -5.59964198	     -6.68098074	    -27.29918483	     32.99137225	     90.00000001	      0.00000000	      0.00000000
      0.95000000	      8.25013391	      3.85305407	      2.46373858	     -1.03404552	      0.88773839	      0.02819908	     -9.99542137	     -9.45521300	    -11.17397651	     53.95038626	      5.75234405	      0.94161187	     -4.39384779	     -0.34877154	     -7.66610959	     19.44621242	      5.21494562	    -22.69687995	     39.63961060	     -8.52630426	      0.69184172	     17.04634464	     23.87455699	     -7.66610959	    -19.11223529	     -1.42988927	     -3.33844457	      4.76802658	     -8.90012303	    -10.54578338	     40.46210524	     90.00000001	      0.00000000	      0.00000000	     -5.67769626	     -6.68475347	    -27.41079990	     33.45139475	     90.00000001	      0.00000000	      0.00000000
      0.96000000	      8.29819312	      3.89775851	      2.21572396	     -1.02534456	      0.88881032	      0.02798211	     -8.49570807	     -9.65839830	    -10.57694544	     56.32917798	      5.35020845	      0.98312962	     -5.11211674	     -0.69710055	     -7.66348890	     18.48213665	      5.13423536	    -22.75012129	     39.33183111	     -8.15412412	      0.68646995	     17.36921548	     23.93544712	     -7.66348890	    -19.12710624	     -1.53505739	     -3.15897777	      4.29921264	     -8.97438382	    -10.64379698	     40.25613713	     90.00000001	      0.00000000	      0.00000000	     -5.56239662	     -6.69198992	    -27.37718857	     33.80665704	     90.00000001	      0.00000000	      0.00000000
